<?xml  version="1.0" encoding="UTF-8"?>
<!DOCTYPE svg PUBLIC "-//W3C//DTD SVG 1.0//EN" "http://www.w3.org/TR/2001/REC-SVG-20010904/DTD/svg10.dtd" >
<svg xmlns="http://www.w3.org/2000/svg" >
<metadata>
<version>1.0</version>
<id><![CDATA[Proxima N W01 At Cd Thin It]]></id>
<vendor>Monotype Imaging Inc.</vendor>
<credits>
<name>Fonts.com WebFonts</name>
<URL>http://webfonts.fonts.com</URL>
<role>Home of the Web fonts</role>
</credits>
<license>
<URL>http://webfonts.fonts.com/Legal</URL>
</license>
<copyright><![CDATA[Copyright (c) Mark Simonson, 2005. All rights reserved.]]></copyright>
<trademark><![CDATA[Proxima Nova is a trademark of Mark Simonson.]]></trademark>
<licensee>
<name></name>
</licensee>
</metadata>
<defs >
<font horiz-adv-x="408" id="bf85eb36-c5a1-49e6-b05a-eda1f9f04e86">
<font-face font-family="" panose-1="2 0 5 6 3 0 0 2 0 4" ascent="741" descent="-259" units-per-em="1000" alphabetic="0">
</font-face>
<missing-glyph horiz-adv-x="0" />

<glyph unicode="&#xA;" />
<glyph unicode="&#xD;" horiz-adv-x="0" />
<glyph unicode=" " horiz-adv-x="220" />
<glyph unicode="!" horiz-adv-x="208" d="M75 161L176 667H218L95 161H75ZM52 -9Q39 -9 31 -1T22 21Q22 36 32 46T58 56Q71 56 79 48T88 26Q88 11 78 1T52 -9Z"  />
<glyph unicode="&quot;" horiz-adv-x="290" d="M119 443Q128 497 134 541Q137 559 139 577T144 609T147 633T149 644Q151 659 158 668T180 677Q190 677 196 671T203 653Q203 649 202 644T199 636L140 443H119ZM235 443Q244 497 250 541Q253 559 255 577T260 609T263 633T265 644Q267 659 274 668T296 677Q306 677 312 671T319 653Q319 649 318 644T315 636L256 443H235Z"  />
<glyph unicode="#" horiz-adv-x="481" d="M142 0L240 191H138L42 0H9L106 191H10L24 220H120L236 447H139L151 476H250L345 667H378L283 476H383L479 667H511L415 476H510L498 447H401L285 220H384L371 191H271L175 0H142ZM369 447H268L153 220H252L369 447Z"  />
<glyph unicode="$" horiz-adv-x="440" d="M187 -12L168 -100H136L156 -10Q107 -3 68 21T10 77L38 99Q58 67 90 46T162 20L233 338Q211 354 190 370T152 406T125 449T115 503Q115 540 130 572T170 627T228 664T297 678H309L329 768H361L340 674Q378 666 408 648T455 603L429 581Q412 607 387 622T333 644L269 354Q290 338 310 321T347 284T372 239T382 185Q382 146 369 111T330 48T269 5T188 -12H187ZM348 185Q348 230 322 261T261 318L194 18Q230 19 258 32T307 68T337 121T348 185ZM149 503Q149 462 176 433T241 375L302 648H297Q265 648 238 636T192 604T161 558T149 503Z"  />
<glyph unicode="%" horiz-adv-x="632" d="M73 0L568 667H603L107 0H73ZM423 -12Q367 -12 336 24T305 113Q305 156 318 193T354 257T404 299T462 314Q518 314 548 278T579 189Q579 145 566 109T531 45T481 3T423 -12ZM423 15Q446 15 468 28T507 64T535 118T546 187Q546 235 523 261T461 287Q438 287 416 274T376 238T349 184T338 116Q338 68 361 42T423 15ZM209 351Q153 351 123 387T92 476Q92 519 105 556T140 620T190 662T248 677Q304 677 335 641T366 552Q366 508 353 472T317 408T267 366T209 351ZM210 378Q233 378 255 391T294 427T322 481T333 550Q333 598 310 624T248 650Q225 650 203 637T163 601T136 547T125 479Q125 431 148 405T210 378Z"  />
<glyph unicode="&amp;" horiz-adv-x="498" d="M357 0Q348 17 338 35T318 73Q283 35 244 12T160 -12Q131 -12 106 -3T63 23T34 65T23 122Q23 171 37 208T74 274T128 326T190 369Q174 426 174 482Q174 521 186 556T218 618T264 661T317 677Q356 677 383 655T410 581Q410 538 394 506T353 449T295 402T228 360Q237 332 248 305T272 248Q286 212 298 185T324 132Q357 176 382 221T421 298L449 285Q426 238 399 190T340 100Q353 78 367 54T400 0H357ZM160 18Q198 18 233 42T301 104Q284 139 269 171T244 226Q230 259 219 287T199 341Q171 323 146 302T101 255T70 197T58 124Q58 98 66 78T88 45T120 25T160 18ZM208 475Q208 433 220 388Q250 407 278 426T329 467T364 518T377 582Q377 619 359 633T315 647Q296 647 277 634T243 597T218 542T208 475Z"  />
<glyph unicode="&apos;" horiz-adv-x="176" d="M119 443Q128 497 134 541Q137 559 139 577T144 609T147 633T149 644Q151 659 158 668T180 677Q190 677 196 671T203 653Q203 649 202 644T199 636L140 443H119Z"  />
<glyph unicode="(" horiz-adv-x="187" d="M55 -199Q40 -148 31 -91T22 32Q22 212 81 374T250 685L265 675Q218 603 179 523T112 359T68 186T52 7Q52 -12 53 -36T58 -88T65 -141T74 -192L55 -199Z"  />
<glyph unicode=")" horiz-adv-x="187" d="M131 685Q146 634 155 577T164 455Q164 275 105 113T-64 -199L-80 -189Q-33 -116 6 -37T73 128T118 301T134 480Q134 499 133 523T128 574T121 627T112 678L131 685Z"  />
<glyph unicode="*" horiz-adv-x="309" d="M175 409L208 529L94 476L85 503L203 545L110 609L130 633L215 559L235 677H266L233 557L347 610L356 583L239 541L331 477L311 453L226 527L206 409H175Z"  />
<glyph unicode="+" horiz-adv-x="434" d="M250 322L208 130H176L218 322H46L53 352H225L266 538H298L257 352H429L422 322H250Z"  />
<glyph unicode="&#x2c;" horiz-adv-x="208" d="M89 18Q89 -1 82 -20T61 -57T32 -88T0 -112L-18 -92Q10 -77 29 -54T54 -8H48Q37 -8 30 0T22 20Q22 35 32 45T57 56Q71 56 80 47T89 18Z"  />
<glyph unicode="-" horiz-adv-x="265" d="M26 227L32 257H237L231 227H26Z"  />
<glyph unicode="." horiz-adv-x="208" d="M52 -9Q39 -9 31 -1T22 21Q22 36 32 46T58 56Q71 56 79 48T88 26Q88 11 78 1T52 -9Z"  />
<glyph unicode="/" horiz-adv-x="223" d="M-59 -20L289 687H322L-28 -20H-59Z"  />
<glyph unicode="0" horiz-adv-x="491" d="M209 -12Q136 -12 98 41T59 194Q59 242 67 296T90 404T127 507T179 594T243 654T321 677Q394 677 432 625T470 472Q470 424 462 370T439 261T402 158T350 71T286 11T209 -12ZM211 18Q245 18 275 40T331 99T375 184T409 283T430 384T437 477Q437 553 410 600T319 647Q284 647 254 625T199 566T154 482T120 383T99 282T92 189Q92 151 98 120T119 66T156 31T211 18Z"  />
<glyph unicode="1" horiz-adv-x="260" d="M94 0L231 621L101 506L84 529L243 667H273L126 0H94Z"  />
<glyph unicode="2" horiz-adv-x="463" d="M6 0L14 37Q110 134 185 207T311 339T389 446T416 540Q416 591 383 619T298 647Q254 647 220 628T158 572L133 591Q164 631 206 654T298 677Q329 677 356 669T405 644T438 602T451 542Q451 491 423 440T343 328T217 195T52 30H340L334 0H6Z"  />
<glyph unicode="3" horiz-adv-x="439" d="M178 -12Q115 -12 67 24T5 124L37 136Q51 79 88 49T178 18Q215 18 244 34T294 78T326 142T337 216Q337 244 327 265T300 300T261 322T212 330Q198 330 190 330T174 329L182 361Q185 361 193 361T210 360T230 360T247 360Q279 360 307 373T356 411T389 467T401 536Q401 587 369 617T280 647Q242 647 206 627T141 568L117 587Q145 625 188 651T282 677Q348 677 391 641T435 536Q435 499 423 466T389 406T340 362T280 340Q321 327 345 292T370 210Q370 169 357 129T318 58T258 7T178 -12Z"  />
<glyph unicode="4" horiz-adv-x="417" d="M228 0L271 195H14L22 229L364 667H407L309 225H387L381 195H303L260 0H228ZM365 621L55 225H277L365 621Z"  />
<glyph unicode="5" horiz-adv-x="461" d="M196 -12Q126 -12 88 24T32 123L65 134Q91 18 200 18Q233 18 264 38T318 91T355 168T369 256Q369 316 337 348T252 380Q217 380 187 365T126 323L104 341L176 667H465L459 637H202L141 362Q161 383 191 396T259 410Q289 410 315 400T360 371T391 322T403 256Q403 205 387 157T344 72T278 11T196 -12Z"  />
<glyph unicode="6" horiz-adv-x="464" d="M202 -12Q163 -12 136 2T90 41T64 102T56 179Q56 212 62 261T81 366T115 477T166 577T235 649T324 677Q377 677 415 648T465 566L435 552Q426 596 397 621T322 647Q274 647 239 617T177 539T133 434T104 323Q102 315 102 313T101 306Q113 323 130 341T168 373T213 397T264 406Q327 406 367 369T408 260Q408 215 394 167T353 79T288 14T202 -12ZM207 18Q246 18 277 42T330 102T363 180T375 259Q375 311 346 343T260 376Q235 376 212 367T167 341T128 302T93 256Q90 240 88 215T86 170Q86 102 115 60T207 18Z"  />
<glyph unicode="7" horiz-adv-x="384" d="M47 0L403 637H117L123 667H447L442 645L83 0H47Z"  />
<glyph unicode="8" horiz-adv-x="455" d="M197 -12Q124 -12 78 23T32 130Q32 207 81 264T215 348Q198 357 182 371T152 404T130 444T121 491Q121 530 135 564T175 623T232 662T301 677Q331 677 359 668T408 642T441 599T454 538Q454 496 440 463T402 406T347 366T283 341Q300 330 317 315T349 281T373 237T383 185Q383 143 369 107T329 45T269 3T197 -12ZM253 359Q284 365 314 378T367 414T404 468T419 539Q419 587 386 616T298 646Q270 646 244 635T199 602T167 552T155 488Q155 465 164 445T187 407T219 378T253 359ZM196 18Q224 18 251 30T301 65T336 118T350 187Q350 216 340 240T313 283T280 313T247 331Q211 325 179 308T121 266T82 207T67 135Q67 105 77 83T106 47T147 25T196 18Z"  />
<glyph unicode="9" horiz-adv-x="464" d="M300 678Q339 678 367 664T412 625T438 564T447 487Q447 454 441 405T422 300T387 189T336 89T267 17T178 -11Q125 -11 88 18T37 100L67 115Q77 70 105 45T180 19Q228 19 263 49T325 127T369 232T399 343Q401 351 401 353T402 361Q390 343 373 325T334 293T289 269T238 260Q175 260 135 297T94 407Q94 452 108 500T149 587T214 652T300 678ZM296 648Q257 648 226 625T172 565T139 487T127 407Q127 356 156 323T243 290Q268 290 291 299T335 325T375 364T410 410Q412 426 414 451T417 496Q417 564 388 606T296 648Z"  />
<glyph unicode=":" horiz-adv-x="208" d="M52 -9Q39 -9 31 -1T22 21Q22 36 32 46T58 56Q71 56 79 48T88 26Q88 11 78 1T52 -9ZM148 425Q135 425 127 433T118 455Q118 470 128 480T154 490Q167 490 175 482T184 460Q184 445 174 435T148 425Z"  />
<glyph unicode=";" horiz-adv-x="208" d="M89 18Q89 -1 82 -20T61 -57T32 -88T0 -112L-18 -92Q10 -77 29 -54T54 -8H48Q37 -8 30 0T22 20Q22 35 32 45T57 56Q71 56 80 47T89 18ZM148 425Q135 425 127 433T118 455Q118 470 128 480T154 490Q167 490 175 482T184 460Q184 445 174 435T148 425Z"  />
<glyph unicode="&lt;" horiz-adv-x="434" d="M46 324L51 345L471 542L462 504L89 332L386 162L379 128L46 324Z"  />
<glyph unicode="=" horiz-adv-x="434" d="M67 418L74 448H450L443 418H67ZM23 220L30 250H406L399 220H23Z"  />
<glyph unicode="&gt;" horiz-adv-x="434" d="M3 128L12 166L385 336L88 508L95 542L427 345L422 324L3 128Z"  />
<glyph unicode="?" horiz-adv-x="385" d="M170 169Q159 185 154 202T149 236Q149 272 166 298T208 345T264 386T319 427T362 478T379 545Q379 588 348 618T260 648Q221 648 191 635T132 595L116 619Q150 650 185 664T260 678Q296 678 324 668T372 639T402 598T413 548Q413 506 396 475T353 419T297 374T241 334T198 291T181 240Q181 229 184 215T197 189L170 169ZM137 -9Q124 -9 116 -1T107 21Q107 36 117 46T143 56Q156 56 164 48T173 26Q173 11 163 1T137 -9Z"  />
<glyph unicode="@" horiz-adv-x="676" d="M324 -70Q266 -70 217 -48T132 13T76 108T55 230Q55 311 84 385T162 515T275 605T410 639Q466 639 512 618T592 559T643 469T661 352Q661 290 649 241T616 157T571 104T519 85Q483 85 464 109T444 165V171Q433 155 419 140T387 112T349 93T307 85Q282 85 261 93T223 119T197 162T187 224Q187 276 204 326T249 414T316 476T397 500Q438 500 463 476T498 418L511 482H541L478 186Q477 181 477 175T476 163Q476 137 487 125T518 112Q531 112 550 125T588 168T619 242T632 352Q632 411 616 458T570 539T499 591T409 609Q344 609 286 577T183 492T113 371T87 231Q87 170 105 120T155 34T232 -21T328 -41Q376 -41 414 -26T486 16L501 -7Q462 -37 417 -53T324 -70ZM307 112Q332 112 353 121T393 145T426 178T453 215L490 385Q486 400 479 415T461 444T434 465T397 473Q358 473 326 450T270 390T233 310T220 224Q220 173 242 143T307 112Z"  />
<glyph unicode="A" horiz-adv-x="474" d="M370 0L356 179H91L-1 0H-38L311 667H349L404 0H370ZM323 625L107 209H355L323 625Z"  />
<glyph unicode="B" horiz-adv-x="480" d="M26 0L173 667H330Q359 667 384 658T427 631T456 588T467 530Q467 495 457 463T429 405T386 362T331 338Q349 333 363 321T387 291T402 253T408 213Q408 173 396 135T359 66T297 18T212 0H26ZM290 358Q329 358 356 375T400 417T424 473T432 530Q432 580 402 608T324 637H199L137 358H290ZM218 30Q255 30 283 46T332 87T362 146T373 213Q373 267 344 297T260 328H130L64 30H218Z"  />
<glyph unicode="C" horiz-adv-x="512" d="M258 -12Q214 -12 178 3T116 47T76 118T61 216Q61 296 83 378T145 527T240 636T360 678Q423 678 468 646T537 552L507 540Q484 598 446 623T356 648Q320 648 287 630T225 580T172 506T132 415T106 316T96 214Q96 119 139 69T261 18Q301 18 337 38T411 100L434 81Q355 -12 258 -12Z"  />
<glyph unicode="D" horiz-adv-x="535" d="M26 0L173 667H315Q353 667 387 652T448 607T490 534T506 433Q506 394 498 347T473 252T429 159T365 78T280 22T172 0H26ZM64 30H177Q250 30 305 71T398 173T453 304T472 433Q472 481 460 519T425 583T373 623T309 637H199L64 30Z"  />
<glyph unicode="E" horiz-adv-x="444" d="M26 0L173 667H482L476 637H199L137 358H407L400 328H130L64 30H341L335 0H26Z"  />
<glyph unicode="F" horiz-adv-x="432" d="M26 0L173 667H482L476 637H199L137 358H407L400 328H130L58 0H26Z"  />
<glyph unicode="G" horiz-adv-x="542" d="M248 -12Q206 -12 172 3T113 47T75 118T61 216Q61 267 71 321T99 426T145 523T207 603T283 658T371 678Q430 678 473 643T537 552L508 541Q488 592 451 620T364 648Q327 648 293 630T229 580T175 506T133 415T106 315T96 214Q96 122 138 70T254 18Q301 18 339 40T406 99T456 186T492 291H267L273 321H532Q515 243 490 182T429 77T349 11T248 -12Z"  />
<glyph unicode="H" horiz-adv-x="545" d="M379 0L451 328H130L58 0H26L173 667H205L137 358H458L526 667H558L411 0H379Z"  />
<glyph unicode="I" horiz-adv-x="192" d="M26 0L173 667H205L58 0H26Z"  />
<glyph unicode="J" horiz-adv-x="382" d="M110 -12Q65 -12 30 6T-26 63L1 83Q18 51 46 35T110 18Q168 18 201 53T249 153L363 667H395L281 153Q262 68 219 28T110 -12Z"  />
<glyph unicode="K" horiz-adv-x="472" d="M356 0L195 326L110 236L58 0H26L173 667H205L122 291L475 667H519L217 348L393 0H356Z"  />
<glyph unicode="L" horiz-adv-x="391" d="M18 0L165 667H197L56 30H313L307 0H18Z"  />
<glyph unicode="M" horiz-adv-x="639" d="M473 0L610 619L273 0H259L195 619L58 0H26L173 667H223L284 90L600 667H652L505 0H473Z"  />
<glyph unicode="N" horiz-adv-x="543" d="M377 0L191 599L58 0H26L173 667H205L392 75L524 667H556L409 0H377Z"  />
<glyph unicode="O" horiz-adv-x="580" d="M258 -12Q213 -12 177 4T115 50T75 122T61 216Q61 266 70 320T98 425T142 522T201 602T274 657T360 678Q405 678 441 662T504 616T544 544T558 450Q558 400 549 346T521 241T476 144T417 64T343 9T258 -12ZM261 18Q316 18 364 57T447 158T503 298T523 451Q523 499 511 535T476 597T423 635T356 648Q300 648 253 609T171 507T116 367T96 214Q96 119 142 69T261 18Z"  />
<glyph unicode="P" horiz-adv-x="448" d="M26 0L173 667H328Q358 667 383 656T426 624T454 577T464 518Q464 477 452 437T413 363T347 310T253 289H122L58 0H26ZM258 319Q301 319 333 336T387 382T418 446T429 518Q429 572 399 604T322 637H199L128 319H261H258Z"  />
<glyph unicode="Q" horiz-adv-x="580" d="M258 -12Q213 -12 177 4T115 50T75 122T61 216Q61 266 70 320T98 425T142 522T201 602T274 657T360 678Q405 678 441 662T504 616T544 544T558 450Q558 396 547 339T516 228T466 127T399 46L427 -16L399 -29L374 26Q348 8 319 -2T258 -12ZM261 18Q287 18 312 28T361 55L298 194L327 207L385 76Q416 106 441 149T485 241T513 344T523 451Q523 499 511 535T476 597T423 635T356 648Q300 648 253 609T171 507T116 367T96 214Q96 119 142 69T261 18Z"  />
<glyph unicode="R" horiz-adv-x="473" d="M330 0L242 289H122L58 0H26L173 667H323Q351 667 377 657T423 627T454 581T466 520Q466 474 452 434T413 364T353 314T274 291L365 0H330ZM260 319Q302 319 334 336T387 382T419 446T430 520Q430 576 398 606T323 637H199L128 319H259H260Z"  />
<glyph unicode="S" horiz-adv-x="447" d="M188 -12Q129 -12 81 13T10 77L38 99Q61 62 100 40T189 18Q226 18 255 31T305 67T337 120T348 185Q348 221 331 247T288 296T232 339T176 382T133 435T115 503Q115 540 130 572T170 627T228 664T297 678Q349 678 391 658T455 603L429 581Q407 615 373 631T297 648Q265 648 238 636T192 604T161 558T149 503Q149 471 166 447T209 400T265 357T321 311T364 256T382 185Q382 146 369 111T330 48T269 5T188 -12Z"  />
<glyph unicode="T" horiz-adv-x="423" d="M141 0L282 637H115L121 667H488L482 637H314L173 0H141Z"  />
<glyph unicode="U" horiz-adv-x="534" d="M239 -12Q161 -12 114 31T66 153Q66 168 67 181T71 204L173 667H205L103 204Q101 198 100 185T98 158Q98 92 136 55T240 18Q314 18 353 64T413 204L515 667H547L445 204Q422 98 376 43T239 -12Z"  />
<glyph unicode="V" horiz-adv-x="474" d="M164 0L110 667H143L191 42L514 667H551L202 0H164Z"  />
<glyph unicode="W" horiz-adv-x="671" d="M410 0L414 597L154 0H116L118 667H152L146 56L411 667H445L440 56L704 667H740L448 0H410Z"  />
<glyph unicode="X" horiz-adv-x="473" d="M367 0L253 311L5 0H-38L239 343L121 667H157L263 372L495 667H539L277 339L403 0H367Z"  />
<glyph unicode="Y" horiz-adv-x="466" d="M163 0L227 289L105 667H140L248 325L507 667H548L259 289L195 0H163Z"  />
<glyph unicode="Z" horiz-adv-x="444" d="M-10 0L-4 31L440 637H132L138 667H485L479 637L35 30H351L345 0H-10Z"  />
<glyph unicode="[" horiz-adv-x="187" d="M-62 -190L130 678H266L259 648H153L-26 -160H80L73 -190H-62Z"  />
<glyph unicode="\" horiz-adv-x="223" d="M94 687H124L164 -20H134L94 687Z"  />
<glyph unicode="]" horiz-adv-x="187" d="M-79 -190L-72 -160H33L212 648H106L113 678H249L56 -190H-79Z"  />
<glyph unicode="^" horiz-adv-x="374" d="M343 333L276 638L73 333H38L267 667H293L374 333H343Z"  />
<glyph unicode="_" horiz-adv-x="422" d="M-72 -70L-65 -40H362L355 -70H-72Z"  />
<glyph unicode="`" horiz-adv-x="162" d="M204 556L101 700H144L231 556H204Z"  />
<glyph unicode="a" horiz-adv-x="428" d="M273 0L284 52Q258 20 229 4T161 -12Q135 -12 111 -5T69 19T40 59T29 116Q29 156 41 191T76 253T128 295T194 310Q236 310 270 291T325 235L349 341Q354 364 354 383Q354 423 326 445T249 468Q214 468 183 453T125 411L109 435Q175 495 250 495Q308 495 346 469T385 388Q385 376 383 365T378 340L303 0H273ZM166 15Q238 15 292 87L319 205Q305 243 272 263T195 283Q164 283 140 269T98 231T72 178T63 118Q63 65 92 40T166 15Z"  />
<glyph unicode="b" horiz-adv-x="459" d="M200 -12Q156 -12 122 12T69 82L52 0H22L169 667H199L143 412Q169 451 203 473T279 495Q342 495 379 452T417 330Q417 277 402 217T360 106T292 22T200 -12ZM201 15Q244 15 278 47T335 127T371 229T384 329Q384 398 355 433T274 468Q253 468 233 460T194 437T159 405T132 366L77 115Q88 74 121 45T201 15Z"  />
<glyph unicode="c" horiz-adv-x="394" d="M200 -12Q166 -12 137 -1T87 33T54 90T42 171Q42 223 58 280T103 385T175 464T271 495Q315 495 345 478T395 428L371 409Q354 440 327 454T271 468Q223 468 187 438T125 363T88 264T75 166Q75 88 110 52T201 15Q233 15 258 29T304 66L322 45Q294 16 266 2T200 -12Z"  />
<glyph unicode="d" horiz-adv-x="459" d="M258 495Q302 495 336 471T389 402L447 667H477L329 0H299L315 72Q289 33 255 11T179 -12Q116 -12 79 32T41 154Q41 189 47 228T67 305T98 377T141 437T194 479T258 495ZM257 468Q214 468 180 436T123 357T87 255T74 155Q74 86 103 51T184 15Q205 15 225 23T264 46T299 78T326 117L381 368Q370 409 337 438T257 468Z"  />
<glyph unicode="e" horiz-adv-x="459" d="M212 -12Q131 -12 86 36T41 170Q41 215 56 271T99 377T170 461T268 495Q337 495 378 450T419 324Q419 301 415 277T406 232H81Q78 218 77 202T75 171Q75 103 109 59T212 15Q242 15 274 31T333 76L352 55Q323 24 287 6T212 -12ZM381 259Q384 274 386 289T388 320Q388 383 357 425T264 468Q230 468 200 449T147 400T107 333T85 259H376H381Z"  />
<glyph unicode="f" horiz-adv-x="224" d="M35 0L136 456H71L77 483H142L159 562Q172 621 202 649T275 677Q289 677 301 674T326 663L310 638Q302 645 292 647T272 650Q237 650 218 627T189 562L172 483H256L250 456H166L65 0H35Z"  />
<glyph unicode="g" horiz-adv-x="459" d="M147 -196Q99 -196 59 -182T-9 -130L16 -106Q35 -136 68 -152T148 -169Q199 -169 238 -135T294 -23L316 72Q290 33 254 11T176 -12Q147 -12 123 -2T80 29T51 81T40 156Q40 207 54 266T96 376T164 461T258 495Q298 495 335 470T389 402L407 483H436L324 -23Q303 -116 258 -156T147 -196ZM182 15Q202 15 222 23T261 44T296 76T324 113L381 368Q375 388 363 406T334 438T297 460T255 468Q212 468 179 436T122 357T86 256T73 156Q73 84 102 50T182 15Z"  />
<glyph unicode="h" horiz-adv-x="435" d="M276 0L357 367Q359 373 360 383T362 400Q362 437 340 452T282 468Q262 468 242 460T202 439T165 408T134 373L52 0H22L169 667H199L143 411Q172 445 209 470T288 495Q336 495 364 472T392 404Q392 398 390 386T386 366L306 0H276Z"  />
<glyph unicode="i" horiz-adv-x="181" d="M165 566Q154 566 146 573T138 592Q138 606 149 615T171 624Q182 624 190 617T198 598Q198 584 187 575T165 566ZM22 0L129 483H159L52 0H22Z"  />
<glyph unicode="j" horiz-adv-x="181" d="M-70 -196Q-96 -196 -116 -187T-147 -155L-121 -138Q-114 -152 -101 -160T-71 -169Q-45 -169 -27 -152T2 -86L129 483H159L32 -86Q18 -148 -7 -172T-70 -196ZM165 566Q154 566 146 573T138 592Q138 606 149 615T171 624Q182 624 190 617T198 598Q198 584 187 575T165 566Z"  />
<glyph unicode="k" horiz-adv-x="411" d="M299 0L190 245L83 142L52 0H22L169 667H199L93 187L403 483H443L212 265L332 0H299Z"  />
<glyph unicode="l" horiz-adv-x="215" d="M105 -12Q73 -12 54 3T35 49Q35 65 39 81L169 667H199L69 81Q67 73 66 67T65 54Q65 34 76 25T106 15Q120 15 131 20T152 35L166 13Q155 2 140 -5T105 -12Z"  />
<glyph unicode="m" horiz-adv-x="647" d="M488 0L570 371Q571 375 572 383T574 400Q574 434 555 451T505 468Q487 468 468 460T431 439T397 409T367 373L285 0H255L337 371Q339 382 340 389T341 404Q341 434 324 451T271 468Q253 468 235 460T198 439T164 409T134 373L52 0H22L129 483H159L143 411Q154 426 168 441T200 468T236 487T277 495Q300 495 317 488T347 470T365 444T371 415Q371 410 370 406Q398 442 433 468T511 495Q551 495 577 472T604 405Q604 396 602 386T598 366L518 0H488Z"  />
<glyph unicode="n" horiz-adv-x="435" d="M276 0L357 366Q359 374 360 383T362 400Q362 436 340 452T282 468Q262 468 242 460T202 439T165 408T134 373L52 0H22L129 483H159L143 411Q172 445 209 470T288 495Q334 495 363 473T392 404Q392 398 390 386T386 366L306 0H276Z"  />
<glyph unicode="o" horiz-adv-x="461" d="M193 -12Q125 -12 83 31T41 163Q41 217 57 276T102 383T173 463T267 495Q335 495 377 452T419 320Q419 266 403 207T358 100T287 20T193 -12ZM194 15Q237 15 272 45T333 121T372 220T386 320Q386 394 354 431T266 468Q237 468 212 454T165 417T127 362T98 297T80 229T74 163Q74 89 106 52T194 15Z"  />
<glyph unicode="p" horiz-adv-x="457" d="M200 -12Q156 -12 122 12T69 82L11 -184H-20L129 483H159L143 412Q169 451 203 473T279 495Q342 495 379 452T417 330Q417 277 402 217T360 106T292 22T200 -12ZM201 15Q244 15 278 47T335 127T371 229T384 329Q384 398 355 433T274 468Q253 468 233 460T194 437T159 405T132 366L77 115Q88 74 121 45T201 15Z"  />
<glyph unicode="q" horiz-adv-x="457" d="M258 495Q302 495 336 471T389 402L406 483H436L288 -184H258L315 72Q289 33 255 11T179 -12Q116 -12 79 32T41 154Q41 189 47 228T67 305T98 377T141 437T194 479T258 495ZM257 468Q214 468 180 436T123 357T87 255T74 155Q74 86 103 51T184 15Q205 15 225 23T264 46T299 78T326 117L381 368Q370 409 337 438T257 468Z"  />
<glyph unicode="r" horiz-adv-x="266" d="M22 0L129 483H159L141 406Q157 427 173 443T208 470T249 486T301 492L293 457Q289 459 283 459T268 459Q226 459 191 430T132 362L52 0H22Z"  />
<glyph unicode="s" horiz-adv-x="366" d="M144 -12Q94 -12 58 6T1 62L27 81Q42 53 72 34T145 15Q172 15 194 24T231 49T256 85T265 127Q265 154 251 174T216 210T170 242T124 274T88 312T74 363Q74 390 84 414T112 456T158 484T219 495Q264 495 298 476T348 429L323 410Q311 437 281 452T215 468Q165 468 135 441T105 371Q105 346 119 327T154 292T200 261T246 228T282 188T296 135Q296 106 286 79T255 32T207 0T144 -12Z"  />
<glyph unicode="t" horiz-adv-x="234" d="M114 -12Q81 -12 63 4T45 53Q45 64 48 81L132 456H66L72 483H138L167 615H197L168 483H252L246 456H162L78 81Q75 67 75 54Q75 15 116 15Q130 15 141 20T161 35L176 13Q164 2 149 -5T114 -12Z"  />
<glyph unicode="u" horiz-adv-x="435" d="M159 483L78 117Q76 110 75 101T73 84Q73 47 94 31T152 15Q193 15 232 43T299 107L383 483H413L306 0H276L292 72Q263 38 226 13T146 -12Q100 -12 72 10T43 80Q43 86 44 98T48 118L129 483H159Z"  />
<glyph unicode="v" horiz-adv-x="375" d="M116 0L67 483H99L139 35L379 483H415L151 0H116Z"  />
<glyph unicode="w" horiz-adv-x="594" d="M362 0L340 439L124 0H97L74 483H106L120 47L334 483H364L384 47L592 483H626L389 0H362Z"  />
<glyph unicode="x" horiz-adv-x="379" d="M270 0L187 223L5 0H-33L173 247L83 483H117L193 272L365 483H403L207 247L304 0H270Z"  />
<glyph unicode="y" horiz-adv-x="435" d="M123 -196Q15 -196 -33 -130L-8 -106Q12 -138 46 -153T124 -169Q184 -169 219 -132T270 -24L291 72Q260 37 225 13T146 -12Q102 -12 73 9T43 79Q43 87 44 96T48 118L129 483H159L77 117Q75 108 74 99T73 83Q73 46 95 31T152 15Q173 15 193 23T233 43T268 73T299 108L383 483H413L300 -24Q280 -115 235 -155T123 -196Z"  />
<glyph unicode="z" horiz-adv-x="371" d="M-4 0L2 27L328 456H98L104 483H369L363 456L37 27H271L266 0H-4Z"  />
<glyph unicode="{" horiz-adv-x="212" d="M59 -190Q30 -190 6 -170T-18 -111Q-18 -104 -17 -97T-15 -85L39 157Q40 162 41 166T42 176Q42 199 33 214T3 229L10 259Q39 259 55 280T78 331L132 575Q144 629 174 653T244 678H291L284 648H237Q210 648 190 630T162 575L107 328Q100 296 86 274T43 241Q57 233 64 219T72 188Q72 180 71 172T68 154L15 -87Q14 -92 14 -96T13 -106Q13 -131 27 -145T61 -160H105L98 -190H59Z"  />
<glyph unicode="|" horiz-adv-x="190" d="M100 -20V687H130V-20H100Z"  />
<glyph unicode="}" horiz-adv-x="212" d="M152 678Q181 678 205 657T229 598Q229 593 228 585T226 573L172 331Q170 321 170 312Q170 290 179 275T208 259L201 229Q172 229 156 208T133 157L79 -87Q67 -141 38 -165T-33 -190H-80L-73 -160H-26Q2 -160 21 -142T49 -87L104 161Q111 193 125 215T168 248Q154 255 147 269T139 301Q139 309 140 317T143 335L196 575Q197 580 197 584T198 594Q198 619 184 633T150 648H106L113 678H152Z"  />
<glyph unicode="~" horiz-adv-x="436" d="M501 664Q491 623 477 582T444 507T401 454T345 433Q316 433 302 448T281 485T273 534T267 582T254 620T223 635Q185 635 155 583T99 431L70 436Q80 477 94 518T127 591T170 644T226 665Q255 665 269 650T290 613T298 564T304 515T317 477T347 462Q421 462 471 667L501 664Z"  />
<glyph unicode="&#xA0;" horiz-adv-x="220" />
<glyph unicode="&#xA1;" horiz-adv-x="208" d="M131 322L30 -184H-12L111 322H131ZM154 492Q167 492 175 484T184 462Q184 447 174 437T148 427Q135 427 127 435T118 457Q118 472 128 482T154 492Z"  />
<glyph unicode="&#xA2;" horiz-adv-x="394" d="M200 -12Q195 -12 191 -12T182 -11L162 -100H132L153 -6Q103 8 73 51T42 171Q42 222 57 278T101 381T171 460T264 494L280 565H310L294 493Q361 486 395 428L371 409Q357 435 335 449T288 467L188 15H201Q233 15 258 29T304 66L322 45Q294 16 266 2T200 -12ZM75 166Q75 104 98 69T159 21L258 467Q213 462 179 431T122 356T87 261T75 166Z"  />
<glyph unicode="&#xA3;" horiz-adv-x="417" d="M35 297H153Q146 315 137 331T119 366T105 404T99 449Q99 493 114 534T155 607T217 658T294 677Q320 677 344 670T388 649T421 616T438 573L409 559Q401 597 372 622T294 647Q264 647 235 633T184 594T147 532T133 451Q133 426 139 406T153 368T170 333T186 297H299L293 267H194Q195 261 195 256T196 244Q196 213 185 184T156 129T118 84T77 50Q89 55 98 57T119 59Q140 59 158 53T192 38T225 24T259 17Q285 17 307 29T343 58L356 32Q336 12 310 0T256 -13Q227 -13 210 -6T177 9T145 24T102 31Q64 31 6 -7L-4 24Q29 39 59 63T113 116T150 177T164 241Q164 255 161 267H29L35 297Z"  />
<glyph unicode="&#xA4;" horiz-adv-x="506" d="M253 222Q310 222 341 262T372 365Q372 395 364 421T341 467T304 498T253 509Q224 509 202 498T165 468T141 422T133 365Q133 334 141 308T164 263T202 233T253 222ZM19 168L88 239Q50 294 50 365Q50 436 88 489L19 560L64 603L131 534Q155 552 185 563T253 574Q289 574 320 563T375 534L442 603L487 560L418 489Q455 435 455 365Q455 330 445 298T417 240L487 168L442 125L374 194Q325 157 253 157Q181 157 132 194L64 125L19 168Z"  />
<glyph unicode="&#xA5;" horiz-adv-x="466" d="M167 0L195 129H-6L1 159H202L231 289H30L36 319H221L109 667H144L252 325L511 667H552L286 319H462L456 289H263L234 159H427L420 129H227L199 0H167Z"  />
<glyph unicode="&#xA6;" horiz-adv-x="190" d="M100 -20V296H130V-20H100ZM100 371V687H130V371H100Z"  />
<glyph unicode="&#xA7;" horiz-adv-x="366" d="M334 313Q334 267 307 230T218 175Q250 153 264 126T279 69Q279 40 269 13T240 -35T194 -68T131 -81Q27 -81 -21 -11L6 9Q23 -20 54 -37T130 -54Q155 -54 176 -45T214 -20T239 17T248 64Q248 90 234 109T199 143T154 173T109 204T74 243T60 297Q60 345 95 383T197 427Q159 449 137 477T114 544Q114 570 124 594T152 636T196 666T254 677Q302 677 337 661T393 613L368 595Q348 627 318 638T254 650Q231 650 211 642T177 620T154 588T145 549Q145 522 159 503T194 469T239 439T285 408T320 368T334 313ZM304 309Q304 347 280 370T226 409Q188 405 163 394T121 368T97 336T90 300Q90 265 118 240T194 190Q254 209 279 240T304 309Z"  />
<glyph unicode="&#xA8;" horiz-adv-x="252" d="M313 601Q313 588 304 579T282 570Q271 570 264 577T257 595Q257 608 266 617T288 626Q299 626 306 619T313 601ZM151 601Q151 588 142 579T120 570Q109 570 102 577T95 595Q95 608 104 617T126 626Q137 626 144 619T151 601Z"  />
<glyph unicode="&#xA9;" horiz-adv-x="778" d="M754 334Q754 263 727 200T653 90T543 16T408 -11Q337 -11 274 16T165 90T91 200T64 334Q64 406 91 468T164 578T274 652T408 679Q480 679 543 652T653 578T727 469T754 334ZM728 334Q728 400 703 458T634 559T532 628T408 653Q342 653 285 628T184 560T115 458T90 334Q90 268 115 210T183 109T284 40T408 15Q474 15 532 40T633 108T702 210T728 334ZM519 170Q492 147 460 133T388 119Q342 119 307 134T247 174T209 234T196 307Q196 359 216 403T270 480T345 531T433 550Q539 550 586 470L562 453Q544 488 511 505T433 523Q395 523 358 507T292 462T244 394T225 307Q225 274 237 245T270 194T322 159T388 146Q420 146 452 159T504 193L519 170Z"  />
<glyph unicode="&#xAA;" horiz-adv-x="340" d="M239 624Q212 624 190 607T152 562T127 501T118 437Q118 390 138 366T192 342Q222 342 246 362T288 407L323 565Q315 590 292 607T239 624ZM367 640L298 326H270L281 376Q239 318 185 318Q144 318 117 346T89 437Q89 472 99 509T129 577T175 628T237 648Q267 648 292 633T329 591L339 640H367Z"  />
<glyph unicode="&#xAB;" horiz-adv-x="319" d="M114 63L29 243L194 420H233L65 239L147 63H114ZM212 63L127 243L292 420H331L162 239L245 63H212Z"  />
<glyph unicode="&#xAC;" horiz-adv-x="434" d="M399 220H367L411 418H67L74 448H450L399 220Z"  />
<glyph unicode="&#xAD;" horiz-adv-x="265" d="M26 227L32 257H237L231 227H26Z"  />
<glyph unicode="&#xAE;" horiz-adv-x="494" d="M508 465Q508 421 492 383T446 315T378 270T295 253Q251 253 213 269T146 315T101 382T84 465Q84 509 100 548T146 615T213 660T296 677Q340 677 379 661T446 616T491 548T508 465ZM482 465Q482 504 468 538T428 597T368 636T295 651Q256 651 223 637T164 597T125 538T110 465Q110 427 124 393T164 334T222 294T295 279Q334 279 368 293T427 333T467 393T482 465ZM330 343L288 439H239L218 343H189L242 586H333Q359 586 380 570T401 522Q401 504 394 489T376 463T350 446T321 440L365 343H330ZM370 518Q370 538 358 548T329 559H265L245 467H315Q338 467 354 482T370 518Z"  />
<glyph unicode="&#xAF;" horiz-adv-x="302" d="M77 591L83 618H384L378 591H77Z"  />
<glyph unicode="&#xB0;" horiz-adv-x="273" d="M318 566Q318 543 309 523T285 488T250 465T207 456Q184 456 164 464T129 488T106 523T97 566Q97 589 105 609T129 644T164 668T207 677Q230 677 250 668T285 644T309 609T318 566ZM288 566Q288 599 264 623T207 647Q174 647 151 623T127 566Q127 533 150 510T206 486Q239 486 263 509T288 566Z"  />
<glyph unicode="&#xB1;" horiz-adv-x="434" d="M250 322L208 130H176L218 322H46L53 352H225L266 538H298L257 352H429L422 322H250ZM-19 30L-13 60H364L358 30H-19Z"  />
<glyph unicode="&#xB2;" horiz-adv-x="310" d="M83 421L88 447Q147 499 194 539T275 614T326 677T344 735Q344 770 321 785T269 801Q213 801 175 751L156 770Q179 797 206 812T269 827Q287 827 305 822T339 806T364 778T374 735Q374 703 356 672T305 607T227 533T128 447H312L307 421H83Z"  />
<glyph unicode="&#xB3;" horiz-adv-x="310" d="M334 541Q334 520 326 498T303 457T264 426T211 414Q168 414 138 433T94 486L119 500Q131 472 154 456T211 440Q234 440 251 449T280 475T298 510T304 549Q304 581 281 598T225 615Q217 615 211 615T199 614L205 641Q213 640 225 640T247 640Q286 640 314 665T342 734Q342 765 320 783T264 801Q235 801 214 788T171 752L153 771Q174 796 203 811T265 827Q310 827 340 805T371 736Q371 694 344 663T274 624Q298 618 316 596T334 541Z"  />
<glyph unicode="&#xB4;" horiz-adv-x="162" d="M96 556H67L218 700H263L96 556Z"  />
<glyph unicode="&#xB5;" horiz-adv-x="435" d="M-20 -184L129 483H159L78 117Q65 60 83 37T143 13Q163 13 185 20T227 41T266 70T298 105L383 483H413L306 0H276L291 70Q259 35 218 12T134 -12Q75 -12 55 17L11 -184H-20Z"  />
<glyph unicode="&#xB6;" horiz-adv-x="449" d="M250 -100L414 637H316L152 -100H122L216 323Q188 323 163 334T120 367T90 416T79 479Q79 514 93 548T134 608T195 651T273 667H450L280 -100H250Z"  />
<glyph unicode="&#xB7;" horiz-adv-x="208" d="M101 212Q88 212 80 220T71 242Q71 257 81 267T107 277Q120 277 128 269T137 247Q137 232 127 222T101 212Z"  />
<glyph unicode="&#xB8;" horiz-adv-x="171" d="M-4 -187Q-59 -187 -89 -152L-70 -127Q-56 -144 -39 -152T-1 -160Q31 -160 47 -143T64 -103Q64 -88 55 -79T28 -70Q8 -70 -8 -87L-26 -74L24 11H54L12 -59Q19 -53 26 -51T42 -48Q65 -48 79 -62T93 -102Q93 -138 66 -162T-4 -187Z"  />
<glyph unicode="&#xB9;" horiz-adv-x="191" d="M140 421L218 777L144 712L128 733L231 821H258L170 421H140Z"  />
<glyph unicode="&#xBA;" horiz-adv-x="339" d="M200 318Q147 318 119 350T90 440Q90 472 100 508T130 576T179 627T244 648Q297 648 325 616T354 526Q354 494 344 458T314 390T265 339T200 318ZM200 344Q230 344 253 362T292 408T316 467T325 526Q325 571 303 596T243 621Q213 621 191 603T152 558T128 499T120 440Q120 396 141 370T200 344Z"  />
<glyph unicode="&#xBB;" horiz-adv-x="319" d="M108 420L193 240L28 63H-11L158 245L75 420H108ZM206 420L291 240L126 63H87L255 245L173 420H206Z"  />
<glyph unicode="&#xBC;" horiz-adv-x="615" d="M73 0H39L534 667H569L73 0ZM504 113L479 0H450L475 113H310L315 140L529 400H567L509 139H559L554 113H504ZM530 362L345 139H480L530 362ZM106 267L184 623L110 558L94 579L197 667H224L136 267H106Z"  />
<glyph unicode="&#xBD;" horiz-adv-x="650" d="M73 0H39L534 667H569L73 0ZM330 0L335 26Q394 78 441 118T522 193T573 256T591 314Q591 349 568 364T516 380Q460 380 422 330L403 349Q426 376 453 391T516 406Q534 406 552 401T586 385T611 357T621 314Q621 282 603 251T552 186T474 112T375 26H559L554 0H330ZM106 267L184 623L110 558L94 579L197 667H224L136 267H106Z"  />
<glyph unicode="&#xBE;" horiz-adv-x="696" d="M154 0H120L615 667H650L154 0ZM585 113L560 0H531L556 113H391L396 140L610 400H648L590 139H640L635 113H585ZM611 362L426 139H561L611 362ZM300 387Q300 366 292 344T269 303T230 272T177 260Q134 260 104 279T60 332L85 346Q97 318 120 302T177 286Q200 286 217 295T246 321T264 356T270 395Q270 427 247 444T191 461Q183 461 177 461T165 460L171 487Q179 486 191 486T213 486Q252 486 280 511T308 580Q308 611 286 629T230 647Q201 647 180 634T137 598L119 617Q140 642 169 657T231 673Q276 673 306 651T337 582Q337 540 310 509T240 470Q264 464 282 442T300 387Z"  />
<glyph unicode="&#xBF;" horiz-adv-x="324" d="M213 315Q224 299 229 282T234 247Q234 211 217 186T175 139T119 98T64 56T21 5T4 -62Q4 -105 35 -135T123 -165Q162 -165 192 -152T251 -112L267 -136Q233 -167 198 -181T123 -195Q87 -195 58 -185T10 -156T-20 -115T-31 -65Q-31 -23 -14 8T29 64T85 109T141 149T184 192T202 243Q202 254 199 268T186 295L213 315ZM246 492Q259 492 267 484T276 462Q276 447 266 437T240 427Q227 427 219 435T210 457Q210 472 220 482T246 492Z"  />
<glyph unicode="&#xC0;" horiz-adv-x="474" d="M364 728L261 872H304L391 728H364ZM370 0L356 179H91L-1 0H-38L311 667H349L404 0H370ZM323 625L107 209H355L323 625Z"  />
<glyph unicode="&#xC1;" horiz-adv-x="474" d="M326 728H297L448 872H493L326 728ZM370 0L356 179H91L-1 0H-38L311 667H349L404 0H370ZM323 625L107 209H355L323 625Z"  />
<glyph unicode="&#xC2;" horiz-adv-x="474" d="M425 728L372 846L271 728H243L358 872H394L448 728H425ZM370 0L356 179H91L-1 0H-38L311 667H349L404 0H370ZM323 625L107 209H355L323 625Z"  />
<glyph unicode="&#xC3;" horiz-adv-x="474" d="M395 726Q369 726 360 743T345 782T334 821T307 839Q286 839 270 814T240 732H215Q221 759 230 783T251 826T278 855T314 866Q331 866 340 858T355 837T364 810T371 783T381 762T401 753Q422 753 439 778T469 860H494Q488 833 480 809T459 767T431 737T395 726ZM370 0L356 179H91L-1 0H-38L311 667H349L404 0H370ZM323 625L107 209H355L323 625Z"  />
<glyph unicode="&#xC4;" horiz-adv-x="474" d="M462 767Q462 754 453 745T431 736Q420 736 413 743T406 761Q406 774 415 783T437 792Q448 792 455 785T462 767ZM300 767Q300 754 291 745T269 736Q258 736 251 743T244 761Q244 774 253 783T275 792Q286 792 293 785T300 767ZM370 0L356 179H91L-1 0H-38L311 667H349L404 0H370ZM323 625L107 209H355L323 625Z"  />
<glyph unicode="&#xC5;" horiz-adv-x="474" d="M347 692Q313 692 292 714T270 770Q270 789 277 806T298 836T328 856T364 864Q398 864 419 842T441 786Q441 767 434 750T413 720T383 700T347 692ZM347 716Q376 716 396 735T417 784Q417 808 402 824T364 840Q335 840 315 820T294 771Q294 748 309 732T347 716ZM370 0L356 179H91L-1 0H-38L311 667H349L404 0H370ZM323 625L107 209H355L323 625Z"  />
<glyph unicode="&#xC6;" horiz-adv-x="720" d="M298 0L337 179H128L5 0H-33L433 667H754L748 637H471L409 358H679L672 328H402L336 30H613L607 0H298ZM435 621L148 209H344L435 621Z"  />
<glyph unicode="&#xC7;" horiz-adv-x="512" d="M251 -12L223 -59Q230 -53 237 -51T253 -48Q276 -48 290 -62T304 -102Q304 -138 277 -162T207 -187Q152 -187 122 -152L141 -127Q155 -144 172 -152T210 -160Q242 -160 258 -143T275 -103Q275 -88 266 -79T239 -70Q219 -70 203 -87L185 -74L223 -9Q149 2 105 59T61 216Q61 296 83 378T145 527T240 636T360 678Q423 678 468 646T537 552L507 540Q484 598 446 623T356 648Q320 648 287 630T225 580T172 506T132 415T106 316T96 214Q96 119 139 69T261 18Q301 18 337 38T411 100L434 81Q355 -12 258 -12H251Z"  />
<glyph unicode="&#xC8;" horiz-adv-x="444" d="M363 728L260 872H303L390 728H363ZM26 0L173 667H482L476 637H199L137 358H407L400 328H130L64 30H341L335 0H26Z"  />
<glyph unicode="&#xC9;" horiz-adv-x="444" d="M323 728H294L445 872H490L323 728ZM26 0L173 667H482L476 637H199L137 358H407L400 328H130L64 30H341L335 0H26Z"  />
<glyph unicode="&#xCA;" horiz-adv-x="444" d="M422 728L369 846L268 728H240L355 872H391L445 728H422ZM26 0L173 667H482L476 637H199L137 358H407L400 328H130L64 30H341L335 0H26Z"  />
<glyph unicode="&#xCB;" horiz-adv-x="444" d="M458 767Q458 754 449 745T427 736Q416 736 409 743T402 761Q402 774 411 783T433 792Q444 792 451 785T458 767ZM296 767Q296 754 287 745T265 736Q254 736 247 743T240 761Q240 774 249 783T271 792Q282 792 289 785T296 767ZM26 0L173 667H482L476 637H199L137 358H407L400 328H130L64 30H341L335 0H26Z"  />
<glyph unicode="&#xCC;" horiz-adv-x="192" d="M223 728L120 872H163L250 728H223ZM26 0L173 667H205L58 0H26Z"  />
<glyph unicode="&#xCD;" horiz-adv-x="192" d="M185 728H156L307 872H352L185 728ZM26 0L173 667H205L58 0H26Z"  />
<glyph unicode="&#xCE;" horiz-adv-x="192" d="M284 728L231 846L130 728H102L217 872H253L307 728H284ZM26 0L173 667H205L58 0H26Z"  />
<glyph unicode="&#xCF;" horiz-adv-x="192" d="M322 767Q322 754 313 745T291 736Q280 736 273 743T266 761Q266 774 275 783T297 792Q308 792 315 785T322 767ZM160 767Q160 754 151 745T129 736Q118 736 111 743T104 761Q104 774 113 783T135 792Q146 792 153 785T160 767ZM26 0L173 667H205L58 0H26Z"  />
<glyph unicode="&#xD0;" horiz-adv-x="559" d="M50 0L120 319H35L42 349H127L197 667H339Q377 667 411 652T472 607T514 534T530 433Q530 394 522 347T497 252T453 159T389 78T304 22T196 0H50ZM152 319L88 30H201Q274 30 329 71T422 173T477 304T496 433Q496 481 484 519T449 583T397 623T333 637H223L159 349H301L294 319H152Z"  />
<glyph unicode="&#xD1;" horiz-adv-x="543" d="M431 726Q405 726 396 743T381 782T370 821T343 839Q322 839 306 814T276 732H251Q257 759 266 783T287 826T314 855T350 866Q367 866 376 858T391 837T400 810T407 783T417 762T437 753Q458 753 475 778T505 860H530Q524 833 516 809T495 767T467 737T431 726ZM377 0L191 599L58 0H26L173 667H205L392 75L524 667H556L409 0H377Z"  />
<glyph unicode="&#xD2;" horiz-adv-x="580" d="M418 728L315 872H358L445 728H418ZM258 -12Q213 -12 177 4T115 50T75 122T61 216Q61 266 70 320T98 425T142 522T201 602T274 657T360 678Q405 678 441 662T504 616T544 544T558 450Q558 400 549 346T521 241T476 144T417 64T343 9T258 -12ZM261 18Q316 18 364 57T447 158T503 298T523 451Q523 499 511 535T476 597T423 635T356 648Q300 648 253 609T171 507T116 367T96 214Q96 119 142 69T261 18Z"  />
<glyph unicode="&#xD3;" horiz-adv-x="580" d="M379 728H350L501 872H546L379 728ZM258 -12Q213 -12 177 4T115 50T75 122T61 216Q61 266 70 320T98 425T142 522T201 602T274 657T360 678Q405 678 441 662T504 616T544 544T558 450Q558 400 549 346T521 241T476 144T417 64T343 9T258 -12ZM261 18Q316 18 364 57T447 158T503 298T523 451Q523 499 511 535T476 597T423 635T356 648Q300 648 253 609T171 507T116 367T96 214Q96 119 142 69T261 18Z"  />
<glyph unicode="&#xD4;" horiz-adv-x="580" d="M478 728L425 846L324 728H296L411 872H447L501 728H478ZM258 -12Q213 -12 177 4T115 50T75 122T61 216Q61 266 70 320T98 425T142 522T201 602T274 657T360 678Q405 678 441 662T504 616T544 544T558 450Q558 400 549 346T521 241T476 144T417 64T343 9T258 -12ZM261 18Q316 18 364 57T447 158T503 298T523 451Q523 499 511 535T476 597T423 635T356 648Q300 648 253 609T171 507T116 367T96 214Q96 119 142 69T261 18Z"  />
<glyph unicode="&#xD5;" horiz-adv-x="580" d="M453 726Q427 726 418 743T403 782T392 821T365 839Q344 839 328 814T298 732H273Q279 759 288 783T309 826T336 855T372 866Q389 866 398 858T413 837T422 810T429 783T439 762T459 753Q480 753 497 778T527 860H552Q546 833 538 809T517 767T489 737T453 726ZM258 -12Q213 -12 177 4T115 50T75 122T61 216Q61 266 70 320T98 425T142 522T201 602T274 657T360 678Q405 678 441 662T504 616T544 544T558 450Q558 400 549 346T521 241T476 144T417 64T343 9T258 -12ZM261 18Q316 18 364 57T447 158T503 298T523 451Q523 499 511 535T476 597T423 635T356 648Q300 648 253 609T171 507T116 367T96 214Q96 119 142 69T261 18Z"  />
<glyph unicode="&#xD6;" horiz-adv-x="580" d="M513 767Q513 754 504 745T482 736Q471 736 464 743T457 761Q457 774 466 783T488 792Q499 792 506 785T513 767ZM351 767Q351 754 342 745T320 736Q309 736 302 743T295 761Q295 774 304 783T326 792Q337 792 344 785T351 767ZM258 -12Q213 -12 177 4T115 50T75 122T61 216Q61 266 70 320T98 425T142 522T201 602T274 657T360 678Q405 678 441 662T504 616T544 544T558 450Q558 400 549 346T521 241T476 144T417 64T343 9T258 -12ZM261 18Q316 18 364 57T447 158T503 298T523 451Q523 499 511 535T476 597T423 635T356 648Q300 648 253 609T171 507T116 367T96 214Q96 119 142 69T261 18Z"  />
<glyph unicode="&#xD7;" horiz-adv-x="434" d="M234 313L70 178L51 202L216 336L112 469L137 488L239 355L404 490L422 467L258 332L361 200L337 180L234 313Z"  />
<glyph unicode="&#xD8;" horiz-adv-x="580" d="M258 -12Q176 -12 123 41L94 0H60L104 63Q61 123 61 216Q61 266 70 320T98 425T142 522T201 602T274 657T360 678Q402 678 435 664T495 624L525 667H560L514 602Q535 573 546 535T558 450Q558 400 549 346T521 241T476 144T417 64T343 9T258 -12ZM96 214Q96 141 125 92L476 597Q430 648 356 648Q300 648 253 609T171 507T116 367T96 214ZM261 18Q316 18 364 57T447 158T503 298T523 451Q523 488 515 518T493 572L142 68Q164 43 194 31T261 18Z"  />
<glyph unicode="&#xD9;" horiz-adv-x="534" d="M394 728L291 872H334L421 728H394ZM239 -12Q161 -12 114 31T66 153Q66 168 67 181T71 204L173 667H205L103 204Q101 198 100 185T98 158Q98 92 136 55T240 18Q314 18 353 64T413 204L515 667H547L445 204Q422 98 376 43T239 -12Z"  />
<glyph unicode="&#xDA;" horiz-adv-x="534" d="M354 728H325L476 872H521L354 728ZM239 -12Q161 -12 114 31T66 153Q66 168 67 181T71 204L173 667H205L103 204Q101 198 100 185T98 158Q98 92 136 55T240 18Q314 18 353 64T413 204L515 667H547L445 204Q422 98 376 43T239 -12Z"  />
<glyph unicode="&#xDB;" horiz-adv-x="534" d="M455 728L402 846L301 728H273L388 872H424L478 728H455ZM239 -12Q161 -12 114 31T66 153Q66 168 67 181T71 204L173 667H205L103 204Q101 198 100 185T98 158Q98 92 136 55T240 18Q314 18 353 64T413 204L515 667H547L445 204Q422 98 376 43T239 -12Z"  />
<glyph unicode="&#xDC;" horiz-adv-x="534" d="M491 767Q491 754 482 745T460 736Q449 736 442 743T435 761Q435 774 444 783T466 792Q477 792 484 785T491 767ZM329 767Q329 754 320 745T298 736Q287 736 280 743T273 761Q273 774 282 783T304 792Q315 792 322 785T329 767ZM239 -12Q161 -12 114 31T66 153Q66 168 67 181T71 204L173 667H205L103 204Q101 198 100 185T98 158Q98 92 136 55T240 18Q314 18 353 64T413 204L515 667H547L445 204Q422 98 376 43T239 -12Z"  />
<glyph unicode="&#xDD;" horiz-adv-x="466" d="M326 728H297L448 872H493L326 728ZM163 0L227 289L105 667H140L248 325L507 667H548L259 289L195 0H163Z"  />
<glyph unicode="&#xDE;" horiz-adv-x="448" d="M26 0L173 667H205L177 538H299Q328 538 353 527T396 496T424 449T435 389Q435 352 423 312T386 238T320 182T224 160H93L58 0H26ZM229 190Q273 190 305 207T358 253T389 317T400 389Q400 441 370 474T293 508H170L100 190H229Z"  />
<glyph unicode="&#xDF;" horiz-adv-x="477" d="M434 131Q434 105 425 80T396 34T349 1T284 -12Q232 -12 197 6T133 64L160 84Q178 56 207 36T285 15Q312 15 333 24T370 49T394 86T403 130Q403 156 389 174T354 206T309 234T263 264T228 302T214 354Q214 386 227 408T261 446T304 475T348 501T381 531T395 573Q395 609 366 629T301 650Q259 650 224 621T176 532L58 0H28L146 532Q161 599 202 638T302 677Q327 677 349 670T388 650T415 618T425 576Q425 545 412 524T378 488T335 461T291 436T258 404T244 358Q244 333 258 315T293 282T339 253T385 223T420 184T434 131Z"  />
<glyph unicode="&#xE0;" horiz-adv-x="428" d="M308 556L205 700H248L335 556H308ZM273 0L284 52Q258 20 229 4T161 -12Q135 -12 111 -5T69 19T40 59T29 116Q29 156 41 191T76 253T128 295T194 310Q236 310 270 291T325 235L349 341Q354 364 354 383Q354 423 326 445T249 468Q214 468 183 453T125 411L109 435Q175 495 250 495Q308 495 346 469T385 388Q385 376 383 365T378 340L303 0H273ZM166 15Q238 15 292 87L319 205Q305 243 272 263T195 283Q164 283 140 269T98 231T72 178T63 118Q63 65 92 40T166 15Z"  />
<glyph unicode="&#xE1;" horiz-adv-x="428" d="M270 556H241L392 700H437L270 556ZM273 0L284 52Q258 20 229 4T161 -12Q135 -12 111 -5T69 19T40 59T29 116Q29 156 41 191T76 253T128 295T194 310Q236 310 270 291T325 235L349 341Q354 364 354 383Q354 423 326 445T249 468Q214 468 183 453T125 411L109 435Q175 495 250 495Q308 495 346 469T385 388Q385 376 383 365T378 340L303 0H273ZM166 15Q238 15 292 87L319 205Q305 243 272 263T195 283Q164 283 140 269T98 231T72 178T63 118Q63 65 92 40T166 15Z"  />
<glyph unicode="&#xE2;" horiz-adv-x="428" d="M370 556L317 674L216 556H188L303 700H339L393 556H370ZM273 0L284 52Q258 20 229 4T161 -12Q135 -12 111 -5T69 19T40 59T29 116Q29 156 41 191T76 253T128 295T194 310Q236 310 270 291T325 235L349 341Q354 364 354 383Q354 423 326 445T249 468Q214 468 183 453T125 411L109 435Q175 495 250 495Q308 495 346 469T385 388Q385 376 383 365T378 340L303 0H273ZM166 15Q238 15 292 87L319 205Q305 243 272 263T195 283Q164 283 140 269T98 231T72 178T63 118Q63 65 92 40T166 15Z"  />
<glyph unicode="&#xE3;" horiz-adv-x="428" d="M345 554Q319 554 310 571T295 610T284 649T257 667Q236 667 220 642T190 560H165Q171 587 180 611T201 654T228 683T264 694Q281 694 290 686T305 665T314 638T321 611T331 590T351 581Q372 581 389 606T419 688H444Q438 661 430 637T409 595T381 565T345 554ZM273 0L284 52Q258 20 229 4T161 -12Q135 -12 111 -5T69 19T40 59T29 116Q29 156 41 191T76 253T128 295T194 310Q236 310 270 291T325 235L349 341Q354 364 354 383Q354 423 326 445T249 468Q214 468 183 453T125 411L109 435Q175 495 250 495Q308 495 346 469T385 388Q385 376 383 365T378 340L303 0H273ZM166 15Q238 15 292 87L319 205Q305 243 272 263T195 283Q164 283 140 269T98 231T72 178T63 118Q63 65 92 40T166 15Z"  />
<glyph unicode="&#xE4;" horiz-adv-x="428" d="M405 601Q405 588 396 579T374 570Q363 570 356 577T349 595Q349 608 358 617T380 626Q391 626 398 619T405 601ZM243 601Q243 588 234 579T212 570Q201 570 194 577T187 595Q187 608 196 617T218 626Q229 626 236 619T243 601ZM273 0L284 52Q258 20 229 4T161 -12Q135 -12 111 -5T69 19T40 59T29 116Q29 156 41 191T76 253T128 295T194 310Q236 310 270 291T325 235L349 341Q354 364 354 383Q354 423 326 445T249 468Q214 468 183 453T125 411L109 435Q175 495 250 495Q308 495 346 469T385 388Q385 376 383 365T378 340L303 0H273ZM166 15Q238 15 292 87L319 205Q305 243 272 263T195 283Q164 283 140 269T98 231T72 178T63 118Q63 65 92 40T166 15Z"  />
<glyph unicode="&#xE5;" horiz-adv-x="428" d="M299 560Q265 560 244 582T222 638Q222 657 229 674T250 704T280 724T316 732Q350 732 371 710T393 654Q393 635 386 618T365 588T335 568T299 560ZM299 584Q328 584 348 603T369 652Q369 676 354 692T316 708Q287 708 267 688T246 639Q246 616 261 600T299 584ZM273 0L284 52Q258 20 229 4T161 -12Q135 -12 111 -5T69 19T40 59T29 116Q29 156 41 191T76 253T128 295T194 310Q236 310 270 291T325 235L349 341Q354 364 354 383Q354 423 326 445T249 468Q214 468 183 453T125 411L109 435Q175 495 250 495Q308 495 346 469T385 388Q385 376 383 365T378 340L303 0H273ZM166 15Q238 15 292 87L319 205Q305 243 272 263T195 283Q164 283 140 269T98 231T72 178T63 118Q63 65 92 40T166 15Z"  />
<glyph unicode="&#xE6;" horiz-adv-x="729" d="M354 232Q351 218 349 202T347 171Q347 137 355 109T381 59T423 27T482 15Q515 15 546 31T603 76L622 55Q593 24 558 6T482 -12Q417 -12 379 18T327 93Q315 76 300 58T265 24T219 -2T160 -12Q133 -12 109 -4T68 20T40 60T29 116Q29 159 42 195T77 256T130 296T193 310Q234 310 271 293T325 239L348 341Q353 364 353 383Q353 425 324 446T248 468Q212 468 183 454T125 411L108 435Q174 495 250 495Q312 495 345 469T379 384Q399 432 440 463T538 495Q606 495 647 452T689 324Q689 301 685 274T676 232H354ZM651 259Q658 287 658 319Q658 384 626 426T534 468Q496 468 468 448T418 397T382 329T360 259H651ZM320 120Q318 131 317 143T315 171Q315 179 316 189T318 206Q312 226 299 240T269 264T233 278T194 283Q164 283 140 269T99 232T72 179T63 118Q63 67 91 41T166 15Q248 15 320 120Z"  />
<glyph unicode="&#xE7;" horiz-adv-x="394" d="M149 -187Q94 -187 64 -152L83 -127Q97 -144 114 -152T152 -160Q184 -160 200 -143T217 -103Q217 -88 208 -79T181 -70Q161 -70 145 -87L127 -74L165 -8Q110 2 76 46T42 171Q42 223 58 280T103 385T175 464T271 495Q315 495 345 478T395 428L371 409Q354 440 327 454T271 468Q223 468 187 438T125 363T88 264T75 166Q75 88 110 52T201 15Q233 15 258 29T304 66L322 45Q294 16 266 2T200 -12H193L165 -59Q172 -53 179 -51T195 -48Q218 -48 232 -62T246 -102Q246 -138 219 -162T149 -187Z"  />
<glyph unicode="&#xE8;" horiz-adv-x="459" d="M212 -12Q131 -12 86 36T41 170Q41 215 56 271T99 377T170 461T268 495Q337 495 378 450T419 324Q419 301 415 277T406 232H81Q78 218 77 202T75 171Q75 103 109 59T212 15Q242 15 274 31T333 76L352 55Q323 24 287 6T212 -12ZM381 259Q384 274 386 289T388 320Q388 383 357 425T264 468Q230 468 200 449T147 400T107 333T85 259H376H381ZM322 556L219 700H262L349 556H322Z"  />
<glyph unicode="&#xE9;" horiz-adv-x="459" d="M212 -12Q131 -12 86 36T41 170Q41 215 56 271T99 377T170 461T268 495Q337 495 378 450T419 324Q419 301 415 277T406 232H81Q78 218 77 202T75 171Q75 103 109 59T212 15Q242 15 274 31T333 76L352 55Q323 24 287 6T212 -12ZM381 259Q384 274 386 289T388 320Q388 383 357 425T264 468Q230 468 200 449T147 400T107 333T85 259H376H381ZM282 556H253L404 700H449L282 556Z"  />
<glyph unicode="&#xEA;" horiz-adv-x="459" d="M212 -12Q131 -12 86 36T41 170Q41 215 56 271T99 377T170 461T268 495Q337 495 378 450T419 324Q419 301 415 277T406 232H81Q78 218 77 202T75 171Q75 103 109 59T212 15Q242 15 274 31T333 76L352 55Q323 24 287 6T212 -12ZM381 259Q384 274 386 289T388 320Q388 383 357 425T264 468Q230 468 200 449T147 400T107 333T85 259H376H381ZM382 556L329 674L228 556H200L315 700H351L405 556H382Z"  />
<glyph unicode="&#xEB;" horiz-adv-x="459" d="M212 -12Q131 -12 86 36T41 170Q41 215 56 271T99 377T170 461T268 495Q337 495 378 450T419 324Q419 301 415 277T406 232H81Q78 218 77 202T75 171Q75 103 109 59T212 15Q242 15 274 31T333 76L352 55Q323 24 287 6T212 -12ZM381 259Q384 274 386 289T388 320Q388 383 357 425T264 468Q230 468 200 449T147 400T107 333T85 259H376H381ZM419 601Q419 588 410 579T388 570Q377 570 370 577T363 595Q363 608 372 617T394 626Q405 626 412 619T419 601ZM257 601Q257 588 248 579T226 570Q215 570 208 577T201 595Q201 608 210 617T232 626Q243 626 250 619T257 601Z"  />
<glyph unicode="&#xEC;" horiz-adv-x="181" d="M178 556L75 700H118L205 556H178ZM22 0L129 483H159L52 0H22Z"  />
<glyph unicode="&#xED;" horiz-adv-x="181" d="M141 556H112L263 700H308L141 556ZM22 0L129 483H159L52 0H22Z"  />
<glyph unicode="&#xEE;" horiz-adv-x="181" d="M239 556L186 674L85 556H57L172 700H208L262 556H239ZM22 0L129 483H159L52 0H22Z"  />
<glyph unicode="&#xEF;" horiz-adv-x="181" d="M277 601Q277 588 268 579T246 570Q235 570 228 577T221 595Q221 608 230 617T252 626Q263 626 270 619T277 601ZM115 601Q115 588 106 579T84 570Q73 570 66 577T59 595Q59 608 68 617T90 626Q101 626 108 619T115 601ZM22 0L129 483H159L52 0H22Z"  />
<glyph unicode="&#xF0;" horiz-adv-x="461" d="M177 557L306 596Q281 635 254 665L282 683Q297 663 311 645T337 606L437 636L443 611L351 583Q383 526 401 470T420 353Q420 293 405 228T362 110T292 23T197 -12Q124 -12 83 35T42 164Q42 221 58 280T104 386T174 464T263 495Q280 495 298 491T332 476T363 450T386 410Q375 450 359 492T320 573L183 532L177 557ZM197 15Q239 15 273 46T332 124T371 225T385 325Q385 349 379 374T358 421T320 455T263 468Q222 468 188 438T128 362T89 263T75 165Q75 90 108 53T197 15Z"  />
<glyph unicode="&#xF1;" horiz-adv-x="435" d="M276 0L357 366Q359 374 360 383T362 400Q362 436 340 452T282 468Q262 468 242 460T202 439T165 408T134 373L52 0H22L129 483H159L143 411Q172 445 209 470T288 495Q334 495 363 473T392 404Q392 398 390 386T386 366L306 0H276ZM344 554Q318 554 309 571T294 610T283 649T256 667Q235 667 219 642T189 560H164Q170 587 179 611T200 654T227 683T263 694Q280 694 289 686T304 665T313 638T320 611T330 590T350 581Q371 581 388 606T418 688H443Q437 661 429 637T408 595T380 565T344 554Z"  />
<glyph unicode="&#xF2;" horiz-adv-x="461" d="M193 -12Q125 -12 83 31T41 163Q41 217 57 276T102 383T173 463T267 495Q335 495 377 452T419 320Q419 266 403 207T358 100T287 20T193 -12ZM194 15Q237 15 272 45T333 121T372 220T386 320Q386 394 354 431T266 468Q237 468 212 454T165 417T127 362T98 297T80 229T74 163Q74 89 106 52T194 15ZM320 556L217 700H260L347 556H320Z"  />
<glyph unicode="&#xF3;" horiz-adv-x="461" d="M193 -12Q125 -12 83 31T41 163Q41 217 57 276T102 383T173 463T267 495Q335 495 377 452T419 320Q419 266 403 207T358 100T287 20T193 -12ZM194 15Q237 15 272 45T333 121T372 220T386 320Q386 394 354 431T266 468Q237 468 212 454T165 417T127 362T98 297T80 229T74 163Q74 89 106 52T194 15ZM281 556H252L403 700H448L281 556Z"  />
<glyph unicode="&#xF4;" horiz-adv-x="461" d="M193 -12Q125 -12 83 31T41 163Q41 217 57 276T102 383T173 463T267 495Q335 495 377 452T419 320Q419 266 403 207T358 100T287 20T193 -12ZM194 15Q237 15 272 45T333 121T372 220T386 320Q386 394 354 431T266 468Q237 468 212 454T165 417T127 362T98 297T80 229T74 163Q74 89 106 52T194 15ZM380 556L327 674L226 556H198L313 700H349L403 556H380Z"  />
<glyph unicode="&#xF5;" horiz-adv-x="461" d="M193 -12Q125 -12 83 31T41 163Q41 217 57 276T102 383T173 463T267 495Q335 495 377 452T419 320Q419 266 403 207T358 100T287 20T193 -12ZM194 15Q237 15 272 45T333 121T372 220T386 320Q386 394 354 431T266 468Q237 468 212 454T165 417T127 362T98 297T80 229T74 163Q74 89 106 52T194 15ZM356 554Q330 554 321 571T306 610T295 649T268 667Q247 667 231 642T201 560H176Q182 587 191 611T212 654T239 683T275 694Q292 694 301 686T316 665T325 638T332 611T342 590T362 581Q383 581 400 606T430 688H455Q449 661 441 637T420 595T392 565T356 554Z"  />
<glyph unicode="&#xF6;" horiz-adv-x="461" d="M193 -12Q125 -12 83 31T41 163Q41 217 57 276T102 383T173 463T267 495Q335 495 377 452T419 320Q419 266 403 207T358 100T287 20T193 -12ZM194 15Q237 15 272 45T333 121T372 220T386 320Q386 394 354 431T266 468Q237 468 212 454T165 417T127 362T98 297T80 229T74 163Q74 89 106 52T194 15ZM418 601Q418 588 409 579T387 570Q376 570 369 577T362 595Q362 608 371 617T393 626Q404 626 411 619T418 601ZM256 601Q256 588 247 579T225 570Q214 570 207 577T200 595Q200 608 209 617T231 626Q242 626 249 619T256 601Z"  />
<glyph unicode="&#xF7;" horiz-adv-x="443" d="M46 322L53 352H438L431 322H46ZM201 131Q188 131 180 139T171 161Q171 176 181 186T207 196Q220 196 228 188T237 166Q237 151 227 141T201 131ZM277 473Q264 473 256 481T247 503Q247 518 257 528T283 538Q296 538 304 530T313 508Q313 493 303 483T277 473Z"  />
<glyph unicode="&#xF8;" horiz-adv-x="461" d="M16 0L64 59Q41 100 41 163Q41 217 57 276T102 383T173 463T267 495Q337 495 378 449L406 483H439L394 427Q419 385 419 320Q419 266 403 207T358 100T287 20T193 -12Q119 -12 79 37L49 0H16ZM194 15Q237 15 272 45T333 121T372 220T386 320Q386 366 372 400L99 62Q129 15 194 15ZM74 163Q74 118 86 87L359 424Q327 468 266 468Q237 468 212 454T165 417T127 362T98 297T80 229T74 163Z"  />
<glyph unicode="&#xF9;" horiz-adv-x="435" d="M159 483L78 117Q76 110 75 101T73 84Q73 47 94 31T152 15Q193 15 232 43T299 107L383 483H413L306 0H276L292 72Q263 38 226 13T146 -12Q100 -12 72 10T43 80Q43 86 44 98T48 118L129 483H159ZM308 556L205 700H248L335 556H308Z"  />
<glyph unicode="&#xFA;" horiz-adv-x="435" d="M159 483L78 117Q76 110 75 101T73 84Q73 47 94 31T152 15Q193 15 232 43T299 107L383 483H413L306 0H276L292 72Q263 38 226 13T146 -12Q100 -12 72 10T43 80Q43 86 44 98T48 118L129 483H159ZM269 556H240L391 700H436L269 556Z"  />
<glyph unicode="&#xFB;" horiz-adv-x="435" d="M159 483L78 117Q76 110 75 101T73 84Q73 47 94 31T152 15Q193 15 232 43T299 107L383 483H413L306 0H276L292 72Q263 38 226 13T146 -12Q100 -12 72 10T43 80Q43 86 44 98T48 118L129 483H159ZM367 556L314 674L213 556H185L300 700H336L390 556H367Z"  />
<glyph unicode="&#xFC;" horiz-adv-x="435" d="M159 483L78 117Q76 110 75 101T73 84Q73 47 94 31T152 15Q193 15 232 43T299 107L383 483H413L306 0H276L292 72Q263 38 226 13T146 -12Q100 -12 72 10T43 80Q43 86 44 98T48 118L129 483H159ZM408 601Q408 588 399 579T377 570Q366 570 359 577T352 595Q352 608 361 617T383 626Q394 626 401 619T408 601ZM246 601Q246 588 237 579T215 570Q204 570 197 577T190 595Q190 608 199 617T221 626Q232 626 239 619T246 601Z"  />
<glyph unicode="&#xFD;" horiz-adv-x="435" d="M267 556H238L389 700H434L267 556ZM123 -196Q15 -196 -33 -130L-8 -106Q12 -138 46 -153T124 -169Q184 -169 219 -132T270 -24L291 72Q260 37 225 13T146 -12Q102 -12 73 9T43 79Q43 87 44 96T48 118L129 483H159L77 117Q75 108 74 99T73 83Q73 46 95 31T152 15Q173 15 193 23T233 43T268 73T299 108L383 483H413L300 -24Q280 -115 235 -155T123 -196Z"  />
<glyph unicode="&#xFE;" horiz-adv-x="457" d="M200 -12Q156 -12 122 12T69 82L11 -184H-20L169 667H199L143 412Q169 451 203 473T279 495Q342 495 379 452T417 330Q417 277 402 217T360 106T292 22T200 -12ZM201 15Q244 15 278 47T335 127T371 229T384 329Q384 398 355 433T274 468Q253 468 233 460T194 437T159 405T132 366L77 115Q88 74 121 45T201 15Z"  />
<glyph unicode="&#xFF;" horiz-adv-x="435" d="M402 601Q402 588 393 579T371 570Q360 570 353 577T346 595Q346 608 355 617T377 626Q388 626 395 619T402 601ZM240 601Q240 588 231 579T209 570Q198 570 191 577T184 595Q184 608 193 617T215 626Q226 626 233 619T240 601ZM123 -196Q15 -196 -33 -130L-8 -106Q12 -138 46 -153T124 -169Q184 -169 219 -132T270 -24L291 72Q260 37 225 13T146 -12Q102 -12 73 9T43 79Q43 87 44 96T48 118L129 483H159L77 117Q75 108 74 99T73 83Q73 46 95 31T152 15Q173 15 193 23T233 43T268 73T299 108L383 483H413L300 -24Q280 -115 235 -155T123 -196Z"  />
<glyph unicode="&#x152;" horiz-adv-x="843" d="M421 0L443 103Q404 42 354 15T248 -12Q204 -12 169 5T110 52T74 124T61 216Q61 262 71 314T99 418T145 516T206 599T282 656T370 677Q396 677 422 671T471 649T512 606T540 538L568 667H877L871 637H594L532 358H802L795 328H525L459 30H736L730 0H421ZM523 464Q516 554 475 600T363 647Q324 647 290 628T225 575T172 499T131 407T105 309T96 214Q96 171 106 135T137 73T187 33T254 18Q314 18 369 60T460 177L523 464Z"  />
<glyph unicode="&#x153;" horiz-adv-x="780" d="M406 232Q405 229 404 221T402 203T401 184T400 171Q400 99 435 57T535 15Q567 15 597 30T654 76L673 55Q644 23 609 6T536 -12Q496 -12 466 1T416 35T385 82T373 135Q361 109 345 83T307 36T257 2T191 -12Q122 -12 82 32T41 163Q41 220 57 279T102 386T172 464T265 495Q302 495 329 482T373 448T400 402T409 351Q421 377 437 402T476 448T527 482T591 495Q661 495 700 450T740 324Q740 299 737 274T728 232H406ZM702 259Q705 270 707 288T709 320Q709 387 678 427T588 468Q551 468 521 448T468 397T431 329T410 259H702ZM382 320Q382 399 348 433T264 468Q222 468 187 438T127 363T88 264T74 163Q74 93 104 54T192 15Q234 15 269 45T329 121T368 220T382 320Z"  />
<glyph unicode="&#x160;" horiz-adv-x="440" d="M315 728L261 872H285L337 754L439 872H466L351 728H315ZM188 -12Q129 -12 81 13T10 77L38 99Q61 62 100 40T189 18Q226 18 255 31T305 67T337 120T348 185Q348 221 331 247T288 296T232 339T176 382T133 435T115 503Q115 540 130 572T170 627T228 664T297 678Q349 678 391 658T455 603L429 581Q407 615 373 631T297 648Q265 648 238 636T192 604T161 558T149 503Q149 471 166 447T209 400T265 357T321 311T364 256T382 185Q382 146 369 111T330 48T269 5T188 -12Z"  />
<glyph unicode="&#x161;" horiz-adv-x="366" d="M144 -12Q94 -12 58 6T1 62L27 81Q42 53 72 34T145 15Q172 15 194 24T231 49T256 85T265 127Q265 154 251 174T216 210T170 242T124 274T88 312T74 363Q74 390 84 414T112 456T158 484T219 495Q264 495 298 476T348 429L323 410Q311 437 281 452T215 468Q165 468 135 441T105 371Q105 346 119 327T154 292T200 261T246 228T282 188T296 135Q296 106 286 79T255 32T207 0T144 -12ZM236 556L182 700H206L258 582L360 700H387L272 556H236Z"  />
<glyph unicode="&#x178;" horiz-adv-x="466" d="M461 767Q461 754 452 745T430 736Q419 736 412 743T405 761Q405 774 414 783T436 792Q447 792 454 785T461 767ZM299 767Q299 754 290 745T268 736Q257 736 250 743T243 761Q243 774 252 783T274 792Q285 792 292 785T299 767ZM163 0L227 289L105 667H140L248 325L507 667H548L259 289L195 0H163Z"  />
<glyph unicode="&#x17D;" horiz-adv-x="444" d="M313 728L259 872H283L335 754L437 872H464L349 728H313ZM-10 0L-4 31L440 637H132L138 667H485L479 637L35 30H351L345 0H-10Z"  />
<glyph unicode="&#x17E;" horiz-adv-x="371" d="M-4 0L2 27L328 456H98L104 483H369L363 456L37 27H271L266 0H-4ZM233 556L179 700H203L255 582L357 700H384L269 556H233Z"  />
<glyph unicode="&#x192;" horiz-adv-x="374" d="M-19 -161L76 267H11V297H82L141 562Q153 616 181 646T257 677Q277 677 295 671T329 646L306 626Q297 638 284 642T257 647Q222 647 202 623T173 561L115 297H246V267H108L13 -161H-19Z"  />
<glyph unicode="&#x2C6;" horiz-adv-x="205" d="M251 556L198 674L97 556H69L184 700H220L274 556H251Z"  />
<glyph unicode="&#x2DC;" horiz-adv-x="251" d="M250 554Q224 554 215 571T200 610T189 649T162 667Q141 667 125 642T95 560H70Q76 587 85 611T106 654T133 683T169 694Q186 694 195 686T210 665T219 638T226 611T236 590T256 581Q277 581 294 606T324 688H349Q343 661 335 637T314 595T286 565T250 554Z"  />
<glyph unicode="&#x2013;" horiz-adv-x="527" d="M26 227L32 257H499L493 227H26Z"  />
<glyph unicode="&#x2014;" horiz-adv-x="737" d="M26 227L32 257H709L703 227H26Z"  />
<glyph unicode="&#x2018;" horiz-adv-x="208" d="M131 547Q131 566 138 585T159 622T187 653T220 677L238 657Q210 642 191 619T166 573H172Q183 573 190 565T198 545Q198 530 188 520T163 509Q149 509 140 518T131 547Z"  />
<glyph unicode="&#x2019;" horiz-adv-x="208" d="M227 639Q227 620 220 601T199 564T170 533T138 509L120 529Q148 544 167 567T192 613H186Q175 613 168 621T160 641Q160 656 170 666T195 677Q209 677 218 668T227 639Z"  />
<glyph unicode="&#x201A;" horiz-adv-x="208" d="M89 18Q89 -1 82 -20T61 -57T32 -88T0 -112L-18 -92Q10 -77 29 -54T54 -8H48Q37 -8 30 0T22 20Q22 35 32 45T57 56Q71 56 80 47T89 18Z"  />
<glyph unicode="&#x201C;" horiz-adv-x="331" d="M259 547Q259 566 266 585T287 622T315 653T348 677L366 657Q338 642 319 619T294 573H300Q311 573 318 565T326 545Q326 530 316 520T291 509Q277 509 268 518T259 547ZM137 547Q137 566 144 585T165 622T193 653T226 677L244 657Q216 642 197 619T172 573H178Q189 573 196 565T204 545Q204 530 194 520T169 509Q155 509 146 518T137 547Z"  />
<glyph unicode="&#x201D;" horiz-adv-x="331" d="M227 639Q227 620 220 601T199 564T170 533T138 509L120 529Q148 544 167 567T192 613H186Q175 613 168 621T160 641Q160 656 170 666T195 677Q209 677 218 668T227 639ZM349 639Q349 620 342 601T321 564T292 533T260 509L242 529Q270 544 289 567T314 613H308Q297 613 290 621T282 641Q282 656 292 666T317 677Q331 677 340 668T349 639Z"  />
<glyph unicode="&#x201E;" horiz-adv-x="331" d="M89 18Q89 -1 82 -20T61 -57T32 -88T0 -112L-18 -92Q10 -77 29 -54T54 -8H48Q37 -8 30 0T22 20Q22 35 32 45T57 56Q71 56 80 47T89 18ZM211 18Q211 -1 204 -20T183 -57T154 -88T122 -112L104 -92Q132 -77 151 -54T176 -8H170Q159 -8 152 0T144 20Q144 35 154 45T179 56Q193 56 202 47T211 18Z"  />
<glyph unicode="&#x2020;" horiz-adv-x="251" d="M203 543L159 327H128L180 543L90 539L96 566L184 563L206 677H237L207 563L297 566L291 539L203 543Z"  />
<glyph unicode="&#x2021;" horiz-adv-x="251" d="M291 539L203 543L152 314L242 318L236 291L148 294L126 180H95L125 294L35 291L41 318L129 314L180 543L90 539L96 566L184 563L206 677H237L207 563L297 566L291 539Z"  />
<glyph unicode="&#x2022;" horiz-adv-x="358" d="M278 252Q278 230 269 211T245 177T210 154T168 145Q130 145 105 170T80 233Q80 255 89 274T113 308T148 331T190 340Q228 340 253 315T278 252Z"  />
<glyph unicode="&#x2026;" horiz-adv-x="624" d="M52 -9Q39 -9 31 -1T22 21Q22 36 32 46T58 56Q71 56 79 48T88 26Q88 11 78 1T52 -9ZM260 -9Q247 -9 239 -1T230 21Q230 36 240 46T266 56Q279 56 287 48T296 26Q296 11 286 1T260 -9ZM468 -9Q455 -9 447 -1T438 21Q438 36 448 46T474 56Q487 56 495 48T504 26Q504 11 494 1T468 -9Z"  />
<glyph unicode="&#x2030;" horiz-adv-x="934" d="M73 0L568 667H603L107 0H73ZM423 -12Q367 -12 336 24T305 113Q305 156 318 193T354 257T404 299T462 314Q518 314 548 278T579 189Q579 145 566 109T531 45T481 3T423 -12ZM423 15Q446 15 468 28T507 64T535 118T546 187Q546 235 523 261T461 287Q438 287 416 274T376 238T349 184T338 116Q338 68 361 42T423 15ZM209 351Q153 351 123 387T92 476Q92 519 105 556T140 620T190 662T248 677Q304 677 335 641T366 552Q366 508 353 472T317 408T267 366T209 351ZM210 378Q233 378 255 391T294 427T322 481T333 550Q333 598 310 624T248 650Q225 650 203 637T163 601T136 547T125 479Q125 431 148 405T210 378ZM725 -12Q669 -12 638 24T607 113Q607 156 620 193T656 257T706 299T764 314Q820 314 850 278T881 189Q881 145 868 109T833 45T783 3T725 -12ZM725 15Q748 15 770 28T809 64T837 118T848 187Q848 235 825 261T763 287Q740 287 718 274T678 238T651 184T640 116Q640 68 663 42T725 15Z"  />
<glyph unicode="&#x2039;" horiz-adv-x="221" d="M114 63L29 243L194 420H233L65 239L147 63H114Z"  />
<glyph unicode="&#x203A;" horiz-adv-x="221" d="M108 420L193 240L28 63H-11L158 245L75 420H108Z"  />
<glyph unicode="&#x20AC;" horiz-adv-x="525" d="M274 -12Q230 -12 194 3T132 47T92 118T77 216Q77 224 77 231T78 247H29L36 277H80Q86 334 103 391H61L68 421H112Q130 474 157 520T218 602T292 657T376 678Q439 678 484 646T553 552L523 540Q500 598 462 623T372 648Q336 648 304 630T243 582T190 510T149 421H397L390 391H139Q122 334 116 277H365L358 247H113Q112 239 112 231T112 214Q112 119 155 69T277 18Q317 18 353 38T427 100L450 81Q371 -12 274 -12Z"  />
<glyph unicode="&#x2122;" horiz-adv-x="414" d="M396 447L436 629L331 447H323L298 629L258 447H230L278 667H321L341 509L429 667H472L424 447H396ZM185 641L142 447H114L157 641H105L110 667H242L237 641H185Z"  />


</font>
</defs>
</svg>
